<?xml version="1.0" encoding="UTF-8" standalone="no"?><!DOCTYPE svg><svg xmlns="http://www.w3.org/2000/svg" xmlns:xlink="http://www.w3.org/1999/xlink" xmlns:serif="http://www.serif.com/" width="100%" height="100%" viewBox="0 0 265 80" version="1.1" xml:space="preserve" style="fill-rule: evenodd; clip-rule: evenodd; stroke-linejoin: round; stroke-miterlimit: 2">
    <g transform="matrix(1,0,0,1,-1850.19,-3862.89)">
        <g transform="matrix(1.77778,0,0,3.50931,1715.6,3829.71)">
            <g transform="matrix(1,0,0,1.01013,0,0)">
                <g transform="matrix(0.459557,0,0,0.230472,-63.9241,-887.94)">
                    <circle cx="468.843" cy="3927.69" r="20.84" style="fill: #fabc16"/>
                </g>
                <g transform="matrix(0.809469,0,0,0.657763,14.3968,5.28653)">
                    <g transform="matrix(0.671276,0,0,0.414297,-376.836,-104.623)">
                        <g transform="matrix(36,0,0,36,673.959,298.11)">
                            <path d="M0.638,-0.719L0.394,-0L0.252,-0L0.01,-0.719L0.17,-0.719L0.326,-0.214L0.482,-0.719L0.638,-0.719Z" style="fill: #292829; fill-rule: nonzero"/>
                        </g>
                        <g transform="matrix(36,0,0,36,691.527,298.11)">
                            <path d="M0.441,-0.271L0.351,-0.557L0.349,-0.557L0.258,-0.271L0.441,-0.271ZM0.693,-0L0.529,-0L0.484,-0.148L0.219,-0.148L0.168,-0L0.01,-0L0.265,-0.719L0.439,-0.719L0.693,-0Z" style="fill: #292829; fill-rule: nonzero"/>
                        </g>
                        <g transform="matrix(36,0,0,36,718.275,298.11)">
                            <path d="M0.62,-0L0.47,-0L0.175,-0.482L0.175,-0L0.034,-0L0.034,-0.719L0.193,-0.719L0.48,-0.249L0.48,-0.719L0.62,-0.719L0.62,-0Z" style="fill: #292829; fill-rule: nonzero"/>
                        </g>
                        <g transform="matrix(36,0,0,36,673.959,334.866)">
                            <path d="M0.591,-0.592L0.374,-0.592L0.374,-0L0.223,-0L0.223,-0.592L0.007,-0.592L0.007,-0.719L0.591,-0.719L0.591,-0.592Z" style="fill: #292829; fill-rule: nonzero"/>
                        </g>
                        <g transform="matrix(36,0,0,36,697.035,334.866)">
                            <path d="M0.376,-0.594L0.185,-0.594L0.185,-0.402L0.372,-0.402C0.407,-0.402 0.434,-0.412 0.454,-0.432C0.472,-0.45 0.481,-0.472 0.481,-0.498C0.481,-0.524 0.472,-0.546 0.455,-0.564C0.435,-0.584 0.409,-0.594 0.376,-0.594ZM0.605,-0L0.458,-0L0.458,-0.185C0.458,-0.222 0.448,-0.247 0.429,-0.261C0.412,-0.274 0.384,-0.281 0.345,-0.281L0.185,-0.281L0.185,-0L0.038,-0L0.038,-0.719L0.403,-0.719C0.474,-0.719 0.531,-0.697 0.573,-0.653C0.61,-0.614 0.629,-0.566 0.629,-0.511C0.629,-0.473 0.62,-0.439 0.601,-0.41C0.581,-0.379 0.553,-0.357 0.517,-0.344C0.552,-0.333 0.576,-0.315 0.589,-0.29C0.6,-0.27 0.605,-0.241 0.605,-0.203L0.605,-0Z" style="fill: #292829; fill-rule: nonzero"/>
                        </g>
                        <g transform="matrix(36,0,0,36,721.659,334.866)">
                            <path d="M0.441,-0.271L0.351,-0.557L0.349,-0.557L0.258,-0.271L0.441,-0.271ZM0.693,-0L0.529,-0L0.484,-0.148L0.219,-0.148L0.168,-0L0.01,-0L0.265,-0.719L0.439,-0.719L0.693,-0Z" style="fill: #292829; fill-rule: nonzero"/>
                        </g>
                        <g transform="matrix(36,0,0,36,741.279,334.866)">
                            <path d="M0.638,-0.719L0.394,-0L0.252,-0L0.01,-0.719L0.17,-0.719L0.326,-0.214L0.482,-0.719L0.638,-0.719Z" style="fill: #292829; fill-rule: nonzero"/>
                        </g>
                        <g transform="matrix(36,0,0,36,766.227,334.866)">
                            <path d="M0.549,-0L0.003,-0L0.003,-0.719L0.532,-0.719L0.532,-0.592L0.15,-0.592L0.15,-0.439L0.501,-0.439L0.501,-0.313L0.15,-0.313L0.15,-0.127L0.549,-0.127L0.549,-0Z" style="fill: #292829; fill-rule: nonzero"/>
                        </g>
                        <g transform="matrix(36,0,0,36,787.791,334.866)">
                            <path d="M0.508,-0L0,-0L0,-0.719L0.151,-0.719L0.151,-0.131L0.508,-0.131L0.508,-0Z" style="fill: #292829; fill-rule: nonzero"/>
                        </g>
                    </g>
                    <g transform="matrix(0.0547545,0,0,0.0337933,99.8714,-83.9762)">
                        <g transform="matrix(1,0,0,1,-109.569,578.283)">
                            <path d="M1878.13,2398.18C1887.18,2396.97 1896.4,2396.98 1905.42,2398.65C1902.2,2401.9 1898.27,2404.89 1893.55,2405.26C1887.41,2406.36 1881.71,2402.87 1878.13,2398.18Z" style="fill: #f5f4f1; fill-rule: nonzero"/>
                        </g>
                        <g transform="matrix(1,0,0,1,-109.569,578.283)">
                            <path d="M2374.97,2578.77C2375.37,2581.45 2376.29,2584.61 2376.53,2587.49C2375.85,2584.48 2375.36,2581.69 2374.97,2578.77Z" style="fill: #f5f4f1; fill-rule: nonzero"/>
                        </g>
                        <g transform="matrix(1,0,0,1,-109.569,578.283)">
                            <path d="M2389.4,2601.25C2390.71,2599.76 2393.04,2602.05 2391.56,2603.41C2390.23,2604.84 2387.96,2602.53 2389.4,2601.25Z" style="fill: #f5f4f1; fill-rule: nonzero"/>
                        </g>
                        <g transform="matrix(1,0,0,1,-109.569,578.283)">
                            <path d="M2322.99,2824.88C2342.89,2823.14 2363.03,2822.25 2382.88,2825.18C2390.5,2826.25 2396.67,2831.18 2403.08,2835.06C2408.37,2840.71 2411.28,2848.26 2415,2855.03C2416.59,2857.86 2416.28,2861.18 2415.68,2864.25C2400,2852.5 2381.65,2843.97 2362.03,2842.06C2339.37,2840.4 2315.8,2844.49 2296.15,2856.27C2284.59,2862.18 2275.18,2871.57 2268.7,2882.78C2263.23,2889.66 2261.85,2898.58 2257.23,2905.92C2251.46,2896.9 2254.9,2885.41 2258.33,2876.21C2263.02,2867.53 2265.15,2857.38 2271.92,2849.94C2285.69,2836.61 2303.47,2825.98 2322.99,2824.88Z" style="fill: #f5f4f1; fill-rule: nonzero"/>
                        </g>
                        <g transform="matrix(1,0,0,1,-109.569,578.283)">
                            <path d="M1573,2832.84C1592.64,2831.94 1612.31,2831.59 1631.98,2832.08C1636.28,2832.57 1641.79,2832.28 1644.48,2836.39C1648.24,2841.98 1651.9,2847.68 1656.28,2852.86C1654.29,2853.99 1652.36,2855.52 1650.03,2855.76C1644.6,2854.4 1640.16,2850.38 1634.56,2849.64C1615.75,2848.22 1596.85,2849 1578.03,2849.16C1562.91,2850.45 1547.15,2852.16 1533.56,2859.47C1529.16,2861.73 1524.17,2863.03 1520.45,2866.42C1513.35,2872.87 1505.43,2878.42 1499.18,2885.77C1501.39,2871.88 1509.77,2860 1518.05,2849.01C1522.37,2842.04 1530.61,2840.17 1537.79,2837.6C1549.04,2833.58 1561.19,2833.25 1573,2832.84Z" style="fill: #f5f4f1; fill-rule: nonzero"/>
                        </g>
                        <g transform="matrix(1,0,0,1,-109.569,578.283)">
                            <path d="M1335.58,2875.61C1338.91,2876.65 1342.94,2876.82 1345.68,2879.28C1347.94,2883.03 1349.48,2887.25 1351.14,2891.34C1345.66,2894.12 1336.65,2894.81 1333.92,2887.98C1331.38,2883.89 1334.12,2879.48 1335.58,2875.61Z" style="fill: #f5f4f1; fill-rule: nonzero"/>
                        </g>
                        <g transform="matrix(1,0,0,1,-109.569,578.283)">
                            <path d="M2621.3,2890.14C2623.86,2889.04 2626.7,2889.41 2629.42,2889.56C2628.32,2892.01 2627.18,2894.47 2626.01,2896.91C2623.94,2896.73 2621.86,2896.58 2619.83,2896.46C2620.14,2894.23 2620.63,2892.12 2621.3,2890.14Z" style="fill: #f5f4f1; fill-rule: nonzero"/>
                        </g>
                        <g transform="matrix(1,0,0,1,-109.569,578.283)">
                            <path d="M2617.32,2897.18C2618.28,2895.66 2620.81,2897.32 2619.68,2898.82C2618.65,2900.26 2616.12,2898.61 2617.32,2897.18Z" style="fill: #f5f4f1; fill-rule: nonzero"/>
                        </g>
                        <g transform="matrix(1,0,0,1,-109.569,578.283)">
                            <path d="M1966.99,2949.09C2033.99,2948.78 2101.02,2948.49 2168,2950.06C2185.24,2950.89 2203.28,2946.94 2219.99,2952.91C2219.68,2955.53 2220.13,2959.22 2219.98,2962.11C2213.03,2964.94 2205.36,2964.95 2198.01,2965.09C2154.67,2965.07 2111.32,2964.75 2067.99,2965.16C2026.34,2966.92 1984.65,2965.42 1942.99,2966.16C1899.01,2967.56 1855.02,2968.32 1811.04,2969.29C1789.48,2970.36 1766.84,2969.88 1746.68,2961.44C1745.85,2959.4 1744.19,2955.32 1743.36,2953.27C1762.9,2950.08 1782.75,2951.28 1802.47,2950.57C1822.65,2950.09 1842.85,2951.4 1863.03,2950.38C1897.67,2949.23 1932.36,2950.96 1966.99,2949.09Z" style="fill: #f5f4f1; fill-rule: nonzero"/>
                        </g>
                        <g transform="matrix(1,0,0,1,-109.569,578.283)">
                            <path d="M1726.98,2953C1731.12,2952.93 1735.28,2952.9 1739.48,2952.91C1740.14,2955.67 1741.14,2958.55 1740.52,2961.44C1736.42,2964.85 1731.13,2966.26 1726.34,2968.36C1724.95,2966.07 1723.56,2963.83 1722.18,2961.65C1723.72,2958.71 1725.32,2955.82 1726.98,2953Z" style="fill: #f5f4f1; fill-rule: nonzero"/>
                        </g>
                        <g transform="matrix(1,0,0,1,-109.569,578.283)">
                            <path d="M1937.07,2089.97C1939.31,2090.46 1943.8,2091.45 1946.05,2091.94C1950.4,2102.61 1955.32,2113.04 1961.06,2123.06C1967.12,2132.76 1967.71,2144.64 1969.31,2155.68C1970.03,2165.02 1973.57,2173.96 1973.29,2183.42C1972.82,2187.15 1973.44,2191.82 1977.04,2193.91C1982.99,2197.74 1990.66,2200.55 1993.33,2207.74C1997,2215.75 1993.08,2224.29 1991.02,2232.07C1989.81,2235.88 1993.16,2239.04 1994.7,2242.19C2000.42,2252.54 2010.64,2260.5 2012.97,2272.61C2014.01,2276 2015.64,2279.31 2017.52,2282.38C2022.83,2290.6 2025.5,2300.14 2028.67,2309.33C2029.57,2313.64 2031.76,2318.25 2030.75,2322.82C2030.34,2326.68 2028.7,2330.86 2030.35,2334.63C2033.54,2339.04 2039.5,2340.82 2041.76,2346.11C2045.51,2353.14 2049.98,2359.91 2052.98,2367.34C2052.87,2373.07 2050.47,2378.51 2049.17,2384.1C2054.33,2388.22 2061.33,2388.85 2067.7,2387.7C2071.6,2386.89 2075.38,2383.44 2074.2,2378.94C2074.94,2374.34 2071.39,2370.55 2070.68,2366.25C2071.38,2362.12 2074.41,2358.85 2076.55,2355.43C2079.34,2351.64 2080.36,2346.89 2081.64,2342.47C2083.32,2335.7 2085.09,2328.72 2083.67,2321.77C2082.49,2313.81 2089.19,2308.13 2093.09,2302.06C2100.94,2293.7 2092.6,2280.96 2098.78,2271.88C2103.34,2263.57 2108.35,2255.51 2113.51,2247.58C2116.27,2242.83 2121.25,2240.17 2125.75,2237.31C2130.15,2242.6 2135.37,2247.58 2137.56,2254.32C2144.65,2271.66 2154.06,2288.01 2160.32,2305.71C2163.6,2315.22 2167.89,2324.34 2171.09,2333.9C2173.3,2340.5 2174,2347.71 2176.95,2354.1C2184.85,2366.13 2194.32,2377.08 2201.62,2389.54C2206.03,2395.32 2214.2,2394.6 2220.58,2395.67C2221,2392.45 2221.56,2389.06 2221.1,2385.89C2220.21,2382.03 2217.14,2379.17 2216.06,2375.41C2214.45,2369.79 2212.92,2364.1 2209.8,2359.11C2204.9,2351.78 2204.82,2341.98 2207.99,2333.98C2210.33,2329.44 2215.35,2327.34 2219.25,2324.34C2227.16,2329.61 2227.59,2339.99 2232.72,2347.31C2241.95,2362.12 2248.36,2378.5 2252.5,2395.44C2253.87,2399.98 2254.6,2407.73 2260.81,2408.17C2285.99,2410.7 2311.18,2413.54 2335.92,2419.04C2359.02,2425.42 2383.58,2427.44 2404.99,2439.06C2411.81,2443.01 2416.9,2449.36 2421.02,2455.98C2425.25,2461.89 2423.92,2469.54 2423.44,2476.36C2422.76,2483.43 2417.07,2488.27 2412.6,2493.24C2419.5,2500.7 2426.48,2508.29 2434.71,2514.38C2461.07,2534.98 2480.72,2562.33 2503.22,2586.78C2519.32,2605.01 2534.74,2623.83 2551.77,2641.22C2568.08,2658.68 2584.18,2676.45 2598.2,2695.85C2607.68,2708.16 2613.33,2723.32 2614.34,2738.84C2618.73,2772.16 2612.74,2805.54 2612.26,2838.9C2612.6,2846.02 2621.07,2847.25 2626.28,2849.68C2637.24,2853.25 2647.47,2859.16 2655.62,2867.39C2660.94,2873.6 2660.42,2882.3 2660.79,2890.04C2660.62,2899.93 2660.82,2910.9 2653.92,2918.89C2649.86,2925.35 2642.56,2927.96 2635.87,2930.68C2625.12,2933.9 2613.81,2934.74 2602.68,2935.39C2587.97,2934.98 2573.25,2933.4 2558.55,2934.32C2542.12,2935.59 2525.54,2934.97 2509.23,2937.5C2504.66,2939.77 2498.04,2942.48 2499.11,2949.01C2498.09,2956.17 2496.94,2963.34 2495.72,2970.5C2503.34,2973.73 2511.86,2972.85 2520,2973.13C2562.84,2972.5 2605.71,2973.46 2648.46,2976.53C2679.52,2979.83 2710.83,2980.36 2741.82,2984.48C2769.4,2987.95 2797.29,2988.5 2824.85,2992.26C2845.94,2995.56 2867.33,2996.25 2888.45,2999.5C2914.22,3003.65 2940.55,3003.9 2966.05,3009.88C2979.02,3012.48 2992.51,3011.43 3005.43,3014.48C3013.15,3016.97 3021.6,3024.24 3019.33,3033.32C3015.27,3042.12 3005.44,3048.56 2995.58,3047.48C2976.35,3045.77 2957.22,3043 2938.07,3040.68C2912.67,3035.66 2886.54,3036.71 2861.13,3031.9C2843.9,3029.21 2826.48,3028.17 2809.13,3026.77C2796.66,3025.77 2784.44,3022.88 2771.95,3022.13C2753.04,3020.25 2734,3020.16 2715.15,3017.76C2680.74,3012.45 2645.8,3013.4 2611.17,3010.7C2594.04,3010.01 2577.18,3006.19 2560.02,3006.2C2550.65,3005.7 2541.26,3006.61 2532.04,3004.84C2526.28,3003.56 2520.89,3001.46 2515.25,3000.05C2504.9,2998.76 2494.49,2998.68 2484.13,2997.64C2478.12,2996.94 2471.73,2997.43 2466.36,3000.37C2456.82,3005.8 2449.37,3014 2441.15,3021.14C2434.91,3026.36 2430.7,3033.47 2426.54,3040.37C2441.91,3044.99 2458.14,3043.93 2474,3044.01C2499.34,3043.58 2524.65,3045.37 2550.01,3045.05C2571.32,3044.84 2592.44,3047.99 2613.68,3049.35C2636.11,3050.5 2658.6,3051.16 2681,3053.09C2693.98,3054.11 2706.85,3056.36 2719.86,3057.33C2734.25,3058.94 2748.86,3059.53 2763.01,3062.96C2775.34,3065.92 2788.03,3066.94 2800.45,3069.55C2823.86,3074.66 2848.38,3075.72 2870.77,3084.89C2869.77,3087.79 2870.4,3091.79 2868.67,3094.65C2856.36,3104.22 2839.52,3101.08 2825.31,3098.75C2805.44,3096.45 2785.92,3091.85 2766,3090.12C2756.94,3089.21 2747.91,3088.51 2738.96,3087.01C2707.51,3081.83 2675.47,3082.67 2643.95,3078.25C2603.19,3075 2562.17,3075.48 2521.54,3070.64C2499.48,3068.11 2477.24,3069.76 2455.17,3067.65C2407.78,3065.67 2360.32,3067.09 2312.99,3063.86C2276.07,3060.86 2239,3060.77 2202.01,3059.26C2179.63,3059.42 2157.38,3056.29 2135,3056.95C2102.98,3057.72 2071.01,3055.56 2039,3055.97C2023.66,3055.82 2008.31,3056.52 1993.01,3055.83C1988.41,3054.79 1982.94,3052.12 1982.29,3046.92C1982.25,3042.95 1983.73,3038.33 1987.63,3036.64C1992.12,3034.66 1997.18,3034.56 2002.02,3034.25C2034.33,3033.23 2066.67,3033.17 2098.99,3032.07C2117.01,3031.82 2134.98,3033.28 2153.02,3033.21C2183.65,3034.76 2214.36,3033.26 2245.01,3035.09C2257.1,3034.93 2269.85,3037.24 2281.51,3032.97C2277.09,3023.71 2271.91,3014.81 2267.35,3005.66C2264.67,3001.13 2262.32,2996.09 2258.05,2992.95C2251.02,2989.6 2243.35,2992.42 2236.18,2993.43C2218.07,2997.59 2199.38,2995.65 2181,2996C2099.33,2996.12 2017.65,2995.75 1935.98,2996.18C1904.67,2997.76 1873.32,2996.69 1842,2997C1790.45,2996.74 1738.87,2997.63 1687.35,2996.07C1677.28,3009.2 1665.38,3020.86 1653.36,3032.21C1655.05,3034.76 1656.04,3038.62 1659.41,3039.44C1670.82,3041.62 1682.52,3040.92 1694.1,3041.46C1716.06,3040.8 1738.04,3040.47 1759.99,3039.21C1784.66,3039.1 1809.33,3039.21 1834.01,3038.81C1864.02,3037.32 1894.03,3039.57 1924.05,3039.98C1930.75,3038.76 1935.86,3043.55 1940.56,3047.49C1938.14,3050.68 1935.78,3054.82 1931.37,3055.31C1894.69,3058.29 1857.86,3056.21 1821.13,3057.34C1793.48,3058.8 1765.78,3057.36 1738.13,3058.3C1709.11,3059.85 1680.05,3058.38 1651.03,3059.24C1625.65,3060.45 1600.26,3061.36 1574.96,3063.62C1547.49,3064.27 1520,3063.87 1492.55,3065.37C1463.03,3067.19 1433.4,3066.83 1403.96,3069.86C1358.78,3075.39 1313.11,3075.21 1267.96,3081.01C1249.73,3082.74 1231.31,3083.35 1213.38,3087.35C1194.51,3091.04 1175.2,3091.21 1156.14,3093.26C1143.6,3094.82 1131.09,3097.69 1118.37,3096.64C1110.49,3093.41 1108.38,3079.78 1116.79,3076.01C1128.83,3074.51 1140.86,3072.75 1152.63,3069.72C1193.91,3062.96 1235.47,3058.1 1277,3053.1C1304.66,3050.6 1332.43,3049.26 1360.05,3046.24C1388.01,3044.02 1415.96,3041.29 1444,3040.26C1459.83,3041.24 1475.76,3041.31 1491.48,3038.71C1498.52,3037.11 1507.54,3038.76 1512.49,3032.47C1502.55,3022.4 1493.15,3011.3 1488.25,2997.85C1487.07,2995.23 1486.06,2990.81 1482.34,2991.41C1455.66,2997.34 1428.11,2997.12 1401.13,3001.1C1374.69,3004.06 1348.07,3004.65 1321.54,3006.39C1308.85,3007.41 1296.26,3009.38 1283.59,3010.52C1264.18,3012.7 1244.6,3013.09 1225.32,3016.29C1200.51,3020.52 1175.15,3019.91 1150.37,3024.29C1134.47,3026.98 1118.31,3027.39 1102.32,3029.27C1086.4,3030.6 1070.96,3035.24 1054.96,3035.92C1032.97,3037.02 1011.59,3043.09 989.55,3043.57C982.2,3043.43 974.2,3045.03 967.39,3041.53C959.26,3035.83 956.07,3023.43 962.26,3015.24C968.37,3010.69 976.3,3010.89 983.45,3009.49C1000.76,3006.45 1018.28,3004.99 1035.67,3002.6C1056.61,2998.8 1077.68,2995.83 1098.85,2993.69C1113.8,2991.07 1128.94,2989.92 1144,2988.11C1171.17,2985.36 1198.22,2981.62 1225.46,2979.52C1262.97,2974.53 1300.8,2972.95 1338.45,2969.52C1379.85,2965.82 1421.6,2966.87 1462.9,2961.95C1463.37,2959.76 1464.32,2955.38 1464.79,2953.19C1460.47,2948.1 1457.22,2940.44 1449.4,2940.71C1427.57,2937.54 1405.56,2935.79 1383.55,2934.66C1367.46,2933.93 1351.3,2932.22 1335.93,2927.2C1327.05,2925.6 1319.9,2918.99 1315.54,2911.38C1309.17,2902.79 1308.9,2891.55 1307.61,2881.35C1307.05,2872.48 1308.26,2862.52 1315.18,2856.2C1320.91,2849.9 1329.79,2847.79 1335.71,2841.74C1338.21,2839.23 1339.04,2835.42 1338.62,2832.03C1338.56,2814.94 1337.22,2797.91 1334.98,2781C1332.42,2748.09 1331.78,2714.79 1337.25,2682.14C1342.15,2657.25 1354.72,2634.95 1363.62,2611.43C1371.58,2595.91 1376.42,2579.08 1382.97,2562.97C1386.27,2555.08 1388.26,2546.7 1392.06,2539.02C1401.05,2518.83 1411.77,2498.85 1414.36,2476.56C1419.5,2474.65 1424.42,2472.16 1428.8,2468.83C1424.83,2466.06 1420.54,2463.82 1416.25,2461.65C1419.51,2450.49 1427.24,2441.4 1435.53,2433.55C1445.1,2424.67 1457.6,2419.48 1470.38,2417.42C1488.64,2414.37 1506.96,2411.72 1525.45,2410.53C1547.44,2407.83 1569.79,2409.78 1591.65,2405.81C1599.87,2404.13 1609.08,2404.81 1616.14,2399.57C1612.32,2392.13 1608.84,2384.5 1605.48,2376.86C1603.84,2373.72 1605.32,2369.95 1607.67,2367.64C1612.63,2362.27 1617.83,2357.11 1622.53,2351.51C1627.61,2348.24 1633.97,2347.36 1639.5,2344.92C1636.07,2340.66 1631.17,2337.26 1629.38,2331.9C1627.8,2325.89 1626.01,2320.04 1623.81,2314.26C1621.68,2308.15 1626.13,2302.26 1629.57,2297.65C1634.54,2291.29 1637.75,2283.37 1644.38,2278.46C1647.35,2275.75 1651.36,2273.52 1651.93,2269.08C1653.03,2262.76 1644.95,2259.46 1646.06,2252.99C1646.18,2241.42 1655.04,2233.23 1658.99,2223.07C1661.69,2209.94 1662.28,2196.22 1667.68,2183.76C1673.12,2170.17 1676.79,2154.69 1688.73,2145.01C1701.27,2162.88 1704.28,2185.12 1711.79,2205.21C1714.82,2213.19 1715.75,2222.07 1720.69,2229.27C1724.55,2235.49 1728.93,2241.81 1729.38,2249.4C1730.66,2256.97 1727.93,2265.38 1731.51,2272.57C1735.52,2279.02 1741.7,2284.03 1744.88,2291.07C1749.78,2300.99 1745.46,2313.47 1752.25,2322.74C1755,2326.59 1757.8,2331.6 1763,2332.18C1766.42,2332.96 1769.4,2330.58 1772.32,2329.2C1770.42,2319.32 1766.55,2309.26 1769.16,2299.11C1770.6,2288.78 1776.77,2280.11 1779.25,2270.1C1783.27,2259.08 1783.57,2247.18 1787.25,2236.09C1789.27,2228.98 1793.26,2222.66 1797.1,2216.44C1802.11,2220.54 1808.23,2224.5 1809.64,2231.3C1812.7,2245.55 1816.42,2259.75 1823.1,2272.81C1829.42,2290.89 1833.41,2309.67 1839.22,2327.94C1841.23,2336.63 1850.27,2342.4 1849.73,2351.94C1848.23,2357.58 1846.02,2363.12 1843.2,2368.26C1848.45,2372.63 1858.32,2381.12 1864.32,2373.33C1871.18,2368.22 1866.19,2358.74 1864.38,2352.3C1861.78,2347.2 1864.63,2342.13 1865.92,2337.23C1868.69,2326.41 1870.94,2315.45 1873.62,2304.63C1876.21,2294.81 1885.44,2287.38 1884.43,2276.58C1882.96,2264.68 1888.35,2253.44 1895.05,2244.04C1898.25,2239.4 1903.53,2237.24 1908.34,2234.73C1906.15,2229.93 1903.46,2224.09 1906.43,2219.02C1909.27,2213.71 1912.38,2207.92 1911.11,2201.67C1909.75,2191.31 1910.08,2180.69 1913.86,2170.88C1924.66,2144.8 1924.49,2115.44 1937.07,2089.97M1976,2433C1918.98,2432.4 1862.01,2434.65 1805,2434.01C1783.67,2435.48 1762.33,2433.94 1741,2434.93C1711.67,2435.42 1682.31,2434.17 1653.01,2435.79C1608.66,2436.6 1564.24,2434.77 1519.97,2437.89C1507.02,2439.63 1493.82,2440.4 1481.25,2444.16C1475.75,2445.73 1471.94,2450.22 1467.72,2453.8C1470.73,2459.6 1471.94,2467.32 1477.38,2471.55C1486.74,2474.96 1497.22,2473.26 1507,2474.01C1556.66,2473.6 1606.35,2474.93 1655.99,2473.08C1712.66,2472.79 1769.33,2473.21 1826.01,2472.91C1863.64,2471.19 1901.33,2472.29 1939,2472.01C2007,2471.58 2074.99,2470.94 2143,2470.97C2213.32,2472.88 2283.7,2471.74 2354.04,2471.93C2363.35,2473.48 2373.5,2463.16 2368.05,2454.13C2363.45,2450.55 2357.46,2449.61 2352.12,2447.67C2331.22,2440.33 2308.8,2441.34 2287.04,2439.82C2268.46,2439.05 2249.99,2437.06 2231.42,2436.43C2185.02,2433.03 2138.45,2435.07 2092,2433.05C2053.35,2431.42 2014.65,2431.73 1976,2433M1809,2490.98C1778.98,2490.54 1749,2492.36 1718.99,2492.1C1681.68,2493.9 1644.32,2492.3 1607,2493.33C1575.68,2495.04 1544.27,2492.9 1512.96,2494.73C1493.08,2495.77 1473.04,2495.87 1453.41,2499.5C1447.49,2500.62 1442.4,2504.07 1437.31,2507.08C1435.53,2523.21 1428.32,2537.83 1422.7,2552.82C1413.72,2572.98 1406.14,2593.73 1396.75,2613.71C1390.02,2628.28 1386.45,2644.14 1378.58,2658.21C1382.37,2660.53 1386.18,2663.95 1390.96,2663.76C1408.69,2663.2 1426.44,2663.56 1444.19,2663.46C1450.25,2662.75 1458.53,2663.32 1462.45,2657.62C1464.9,2646.22 1464.89,2634.32 1468.41,2623.13C1472.42,2610.28 1473.71,2596.76 1478.06,2584.02C1480.86,2576 1481.45,2567.36 1484.64,2559.49C1490.01,2547.23 1493.92,2534.37 1499.14,2522.06C1502.42,2516.55 1508.69,2513.35 1515,2513.13C1539.99,2512.32 1565,2513.38 1589.99,2512.18C1631.65,2511.73 1673.32,2512.13 1715,2512C1754.47,2512.22 1794.01,2511.11 1833.42,2513.63C1838.2,2513.02 1841.8,2517.33 1842.17,2521.66C1842.71,2529.43 1841.87,2537.15 1841.62,2544.97C1840.54,2560.94 1841.39,2576.95 1840.74,2592.97C1839.92,2611.17 1836.83,2629.19 1833.25,2647.04C1831.9,2656.21 1829.06,2665.08 1825.35,2673.58C1823.68,2676.57 1820.61,2679.04 1817.06,2678.98C1795.03,2679.33 1773,2678.64 1750.99,2679.34C1703,2678.23 1654.98,2680.05 1607.01,2678.11C1578.67,2677.73 1550.33,2678.19 1522,2677.98C1496.89,2676.76 1471.76,2677.86 1446.66,2676.53C1424.44,2677.13 1402.23,2675.82 1380.02,2676.2C1375.19,2676.1 1367.62,2676.61 1366.72,2682.79C1364.15,2694.77 1361.66,2707.42 1364.38,2719.62C1366.08,2723.2 1370.46,2723.43 1374,2723.86C1431.65,2724.7 1489.35,2722.88 1546.99,2724.87C1576.33,2724.69 1605.64,2726.56 1635,2726.02C1671.45,2725.52 1707.89,2726.58 1744.32,2727.64C1770.83,2729.83 1797.44,2728.52 1824.01,2729.22C1891.3,2732.08 1958.67,2730.66 2026,2731C2059.75,2732.43 2093.53,2731.74 2127.29,2733.24C2128.88,2730.02 2131.72,2726.95 2130.68,2723.08C2129.8,2709.82 2132.85,2695.48 2126.96,2683.1C2117.45,2679.39 2106.95,2680.21 2096.99,2679.73C2070.67,2678.44 2044.31,2679.6 2018.02,2678.23C1988.23,2677.56 1958.44,2678.47 1928.68,2677.57C1913.1,2676.95 1897.15,2678.16 1881.99,2673.98C1874.06,2670.21 1867.5,2663.76 1862.31,2656.8C1862.52,2635.21 1863.96,2613.59 1865.25,2592.04C1865.74,2580.88 1868.82,2570.09 1870.04,2559.04C1871.5,2544.69 1874.26,2530.3 1880.16,2517.08C1881.12,2514.16 1884.39,2513.58 1886.96,2512.9C1903.12,2509.84 1919.64,2511.25 1936,2510.98C1981.01,2511.52 2026,2509.82 2071,2508.93C2084.12,2508.94 2097.45,2508.83 2110.36,2511.68C2114.46,2512.46 2117.86,2516.41 2116.02,2520.96C2116.09,2526.76 2111.96,2531.13 2109.41,2535.99C2108.85,2534.3 2108.31,2532.65 2107.79,2531.02C2061.61,2527.8 2015.25,2529.43 1969,2529C1945.38,2529.53 1921.54,2527.33 1898.12,2531.12C1895.62,2537.09 1893.41,2543.17 1891.17,2549.26C1887.42,2558.81 1887.55,2569.26 1886.27,2579.32C1883.81,2602.61 1876.8,2626.06 1881.59,2649.56C1882.64,2654.89 1888.06,2657.87 1893.04,2658.73C1900.52,2659.57 1908.07,2660.25 1915.64,2660.47C1949.43,2660.48 1983.2,2662.33 2017,2662.03C2044.03,2662.11 2071.09,2661.01 2098.11,2662.6C2107.61,2662.73 2116.46,2670.71 2126.03,2666.03C2131.34,2662.4 2131.33,2654.76 2133.33,2649.35C2134.92,2637.57 2133.1,2625.79 2133.11,2614.01C2133.14,2588.65 2131.31,2563.32 2132.3,2537.98C2133.2,2529.74 2129.36,2522.07 2126.96,2514.46C2132.73,2513.1 2139.38,2508.93 2145,2512.95C2150.05,2515.02 2148.18,2521.83 2148.81,2525.99C2148.49,2539.51 2147.88,2553 2147.38,2566.55C2146.42,2587.52 2148.08,2608.64 2145.35,2629.54C2143.58,2643.54 2142.35,2658.21 2146.72,2671.87C2147.36,2676.03 2144.65,2679.82 2143.91,2683.82C2141.17,2689.71 2144.18,2696 2144.1,2702.14C2143.94,2711.53 2143.24,2721.03 2145.91,2730.22C2150.5,2744.38 2146.78,2759.42 2148.42,2773.96C2151.4,2817.58 2148.29,2861.38 2151.89,2904.98C2153.04,2909.67 2151.67,2917.66 2157.84,2919.22C2166.3,2920.69 2175.07,2919.61 2183.58,2918.6C2188.58,2917.95 2193.47,2915.73 2196.65,2911.69C2201.37,2905.7 2207.18,2900.08 2209.54,2892.64C2214.68,2875.32 2219.81,2857.39 2230.58,2842.62C2239.76,2828.62 2251.99,2816.06 2267.89,2809.9C2281.8,2805.2 2296.2,2801.14 2310.99,2800.8C2335.49,2799.07 2360.06,2800.3 2384.55,2801.65C2396.65,2802.29 2408.86,2801.28 2420.92,2803.01C2430.37,2804.63 2435.7,2813.65 2441.45,2820.48C2455.71,2838.18 2461.69,2860.53 2473.2,2879.85C2476.94,2886.32 2480.54,2892.89 2483.41,2899.83C2485.35,2904.9 2491.93,2904.74 2496.29,2905.7C2516.17,2907.09 2536.08,2904.43 2556,2905.07C2566.65,2904.24 2579.13,2907.7 2588.05,2900.01C2584.84,2894.02 2584.22,2886.39 2579.67,2881.35C2571.83,2878.1 2562.9,2878.68 2554.67,2877.38C2543.05,2876.44 2531.23,2873.74 2521.35,2867.35C2535.67,2861.29 2551.92,2865.83 2566.37,2860.39C2573.84,2855.91 2576.95,2846.74 2577.47,2838.45C2578.1,2831.3 2575.69,2823.98 2577.97,2817.02C2580.08,2810.92 2581.04,2804.45 2581.01,2798.02C2581.08,2780.95 2581.5,2763.86 2580.2,2746.86C2579.15,2739.42 2578.73,2731.68 2575.03,2725.01C2568.13,2712.44 2559.71,2700.58 2549.13,2690.86C2531.17,2674.04 2512.17,2658.21 2491.61,2644.68C2485.81,2643.13 2479.82,2642.73 2473.95,2641.97C2472.8,2637.3 2472.6,2632.25 2469.87,2628.19C2463.04,2617.54 2454.21,2608.4 2446.69,2598.28C2437.26,2586.93 2429.74,2574.13 2419.84,2563.2C2412.33,2553.04 2404.93,2542.83 2397.36,2532.75C2391.55,2523.29 2385.31,2514.11 2378.93,2505.07C2375.73,2500.47 2372.06,2495.91 2366.81,2493.65C2266.58,2490.22 2166.28,2491.04 2066,2490.99C2012.35,2489.15 1958.66,2490.3 1905,2490.01C1873.01,2491.21 1841,2491.09 1809,2490.98M1559.45,2530.62C1546.77,2531.19 1534.05,2530.38 1521.42,2531.57C1517.78,2532.6 1513.93,2534.54 1512.05,2537.99C1505.98,2550.58 1503.53,2564.42 1498.56,2577.41C1494.56,2591.25 1489.41,2604.83 1487.19,2619.14C1485.68,2630.14 1480.9,2640.66 1481.97,2651.99C1481.69,2654.33 1482.16,2660.19 1485.97,2659.95C1519.26,2662.33 1552.67,2660.14 1586.01,2661.21C1616.65,2662.66 1647.33,2661.75 1678,2662C1716.32,2661.8 1754.65,2662.37 1792.98,2661.78C1797.98,2660.74 1805.34,2662.69 1808.68,2657.73C1817.46,2643.38 1818.71,2626 1821.76,2609.86C1823.64,2587.88 1827.57,2565.59 1824.35,2543.58C1824.69,2535.76 1815.77,2533.66 1810.01,2532.09C1793.22,2528.87 1775.97,2530.29 1759,2529.98C1692.48,2530.42 1625.94,2529.17 1559.45,2530.62M1367.92,2742.95C1362.47,2747.99 1363,2756.24 1363,2762.99C1363.46,2783.69 1365.37,2804.35 1366.95,2825.01C1367.8,2838.18 1374.85,2849.67 1378.39,2862.14C1379.86,2873.37 1378.89,2885.36 1384.36,2895.72C1386.39,2902.99 1394.11,2905.84 1400.98,2906C1412.74,2905.88 1424.78,2905.51 1436.15,2902.12C1448.03,2897.2 1456.55,2886.67 1462.61,2875.71C1472.74,2856.24 1484.1,2836.35 1501.7,2822.72C1515.97,2815.1 1532.53,2812.68 1548.53,2812.09C1560.29,2810.59 1572.15,2811 1584,2810.97C1609.08,2811.48 1634.32,2809.01 1659.23,2813.17C1668.99,2815.08 1679.54,2815.18 1688.06,2820.96C1695.57,2830.46 1704.19,2839.15 1710.32,2849.7C1725.13,2874.75 1741.41,2900.42 1766.23,2916.71C1779.71,2920.76 1794.08,2918.97 1807.99,2919.91C1850,2919.45 1891.98,2921.6 1934,2920.99C1964.67,2920.36 1995.31,2922.56 2026,2922.02C2055.66,2921.62 2085.36,2922.84 2115.01,2921.21C2119.38,2920.14 2125.58,2921.97 2128.82,2917.82C2132.3,2913.17 2131.47,2906.81 2132.25,2901.4C2132.63,2873.58 2134.62,2845.82 2134.11,2817.99C2135.72,2795.2 2133.41,2772.37 2135.09,2749.61C2131.07,2747.54 2126.63,2745.88 2122.02,2746.55C2094.01,2747.22 2065.99,2747.17 2037.99,2746.8C2005.67,2745.23 1973.31,2746.72 1941.01,2745.1C1904.66,2745.25 1868.35,2744.64 1832.04,2743.57C1779.78,2739.66 1727.34,2741.34 1675,2741C1624.66,2740.69 1574.31,2741.81 1524,2740.03C1477.32,2739.98 1430.64,2739.95 1383.97,2740.01C1378.64,2740.42 1372.5,2739.6 1367.92,2742.95M2322.99,2824.88C2303.47,2825.98 2285.69,2836.61 2271.92,2849.94C2265.15,2857.38 2263.02,2867.53 2258.33,2876.21C2254.9,2885.41 2251.46,2896.9 2257.23,2905.92C2261.85,2898.58 2263.23,2889.66 2268.7,2882.78C2275.18,2871.57 2284.59,2862.18 2296.15,2856.27C2315.8,2844.49 2339.37,2840.4 2362.03,2842.06C2381.65,2843.97 2400,2852.5 2415.68,2864.25C2416.28,2861.18 2416.59,2857.86 2415,2855.03C2411.28,2848.26 2408.37,2840.71 2403.08,2835.06C2396.67,2831.18 2390.5,2826.25 2382.88,2825.18C2363.03,2822.25 2342.89,2823.14 2322.99,2824.88M1573,2832.84C1561.19,2833.25 1549.04,2833.58 1537.79,2837.6C1530.61,2840.17 1522.37,2842.04 1518.05,2849.01C1509.77,2860 1501.39,2871.88 1499.18,2885.77C1505.43,2878.42 1513.35,2872.87 1520.45,2866.42C1524.17,2863.03 1529.16,2861.73 1533.56,2859.47C1547.15,2852.16 1562.91,2850.45 1578.03,2849.16C1596.85,2849 1615.75,2848.22 1634.56,2849.64C1640.16,2850.38 1644.6,2854.4 1650.03,2855.76C1652.36,2855.52 1654.29,2853.99 1656.28,2852.86C1651.9,2847.68 1648.24,2841.98 1644.48,2836.39C1641.79,2832.28 1636.28,2832.57 1631.98,2832.08C1612.31,2831.59 1592.64,2831.94 1573,2832.84M1335.58,2875.61C1334.12,2879.48 1331.38,2883.89 1333.92,2887.98C1336.65,2894.81 1345.66,2894.12 1351.14,2891.34C1349.48,2887.25 1347.94,2883.03 1345.68,2879.28C1342.94,2876.82 1338.91,2876.65 1335.58,2875.61M2621.3,2890.14C2620.63,2892.12 2620.14,2894.23 2619.83,2896.46C2621.86,2896.58 2623.94,2896.73 2626.01,2896.91C2627.18,2894.47 2628.32,2892.01 2629.42,2889.56C2626.7,2889.41 2623.86,2889.04 2621.3,2890.14M2617.32,2897.18C2616.12,2898.61 2618.65,2900.26 2619.68,2898.82C2620.81,2897.32 2618.28,2895.66 2617.32,2897.18M1966.99,2949.09C1932.36,2950.96 1897.67,2949.23 1863.03,2950.38C1842.85,2951.4 1822.65,2950.09 1802.47,2950.57C1782.75,2951.28 1762.9,2950.08 1743.36,2953.27C1744.19,2955.32 1745.85,2959.4 1746.68,2961.44C1766.84,2969.88 1789.48,2970.36 1811.04,2969.29C1855.02,2968.32 1899.01,2967.56 1942.99,2966.16C1984.65,2965.42 2026.34,2966.92 2067.99,2965.16C2111.32,2964.75 2154.67,2965.07 2198.01,2965.09C2205.36,2964.95 2213.03,2964.94 2219.98,2962.11C2220.13,2959.22 2219.68,2955.53 2219.99,2952.91C2203.28,2946.94 2185.24,2950.89 2168,2950.06C2101.02,2948.49 2033.99,2948.78 1966.99,2949.09M1726.98,2953C1725.32,2955.82 1723.72,2958.71 1722.18,2961.65C1723.56,2963.83 1724.95,2966.07 1726.34,2968.36C1731.13,2966.26 1736.42,2964.85 1740.52,2961.44C1741.14,2958.55 1740.14,2955.67 1739.48,2952.91C1735.28,2952.9 1731.12,2952.93 1726.98,2953Z" style="fill: #292829; fill-rule: nonzero"/>
                        </g>
                        <g transform="matrix(1,0,0,1,-109.569,578.283)">
                            <path d="M2177.81,2510.72C2192.8,2508.94 2207.95,2510.54 2222.99,2510.92C2253.64,2511.43 2284.34,2510.2 2314.99,2511.79C2328.64,2512.17 2342.4,2513.05 2356.01,2511.08C2360.17,2510.57 2365.3,2510.2 2368.63,2513.39C2384.09,2528.95 2395.04,2548.15 2409.21,2564.79C2428.99,2589.59 2444.45,2617.57 2465.83,2641.16C2460.46,2645.9 2456.5,2654.3 2448,2652.85C2419.37,2653.56 2390.74,2652.36 2362.13,2653.34C2333.42,2654.78 2304.69,2653.46 2275.98,2654.18C2246.05,2655.33 2216.02,2655.79 2186.12,2653.79C2181.08,2652.98 2174.79,2653.04 2171.26,2648.71C2166.23,2631.91 2169.33,2614.18 2169.03,2597C2169.72,2570.75 2167.07,2544.5 2169.46,2518.3C2169.91,2514.08 2173.83,2511.24 2177.81,2510.72M2374.97,2578.77C2375.36,2581.69 2375.85,2584.48 2376.53,2587.49C2376.29,2584.61 2375.37,2581.45 2374.97,2578.77M2383.12,2593.54C2380.8,2596.94 2387.04,2594.29 2383.12,2593.54M2389.4,2601.25C2387.96,2602.53 2390.23,2604.84 2391.56,2603.41C2393.04,2602.05 2390.71,2599.76 2389.4,2601.25Z" style="fill: #292829; fill-rule: nonzero"/>
                        </g>
                        <g transform="matrix(1,0,0,1,-109.569,578.283)">
                            <path d="M2107.45,2552.57C2105.3,2547.91 2107.93,2543.55 2110.69,2540.04C2115.03,2551.39 2110.4,2563.33 2111.05,2574.99C2110.37,2592.51 2115.05,2610.64 2109.45,2627.7C2106.11,2619.61 2107.06,2610.51 2107.2,2602.04C2108.2,2585.6 2110.45,2568.91 2107.45,2552.57Z" style="fill: #292829; fill-rule: nonzero"/>
                        </g>
                        <g transform="matrix(1,0,0,1,-109.569,578.283)">
                            <path d="M2187.89,2686.88C2193.27,2684.34 2198.55,2680.53 2204.85,2681.4C2209.96,2681.76 2214.33,2684.84 2218.12,2688.07C2212.39,2695.12 2202.03,2692.38 2194.65,2696.53C2187.79,2700.69 2179.6,2700.66 2172.3,2703.55C2180.49,2706.54 2189.4,2706.29 2198.04,2706.02C2203.23,2705.6 2207.21,2701.74 2212.05,2700.17C2223.21,2697.18 2235.58,2697.49 2245.87,2703.23C2234.84,2711.39 2220.82,2714.33 2207.54,2716.42C2195.21,2717.74 2183.11,2722.3 2170.62,2721.47C2165.2,2721.28 2160.59,2716.66 2160.59,2711.25C2162.15,2706.5 2167.48,2705.32 2171.61,2703.73C2169.6,2700.97 2167.77,2698.09 2166.23,2695.08C2173.16,2691.61 2181.03,2690.55 2187.89,2686.88Z" style="fill: #292829; fill-rule: nonzero"/>
                        </g>
                        <g transform="matrix(1,0,0,1,-109.569,578.283)">
                            <path d="M2159.86,2757.42C2164.8,2756.58 2170.28,2755.44 2174.88,2758.17C2184.42,2763.69 2195.86,2763.58 2206.48,2765.47C2200.94,2769.91 2195.41,2774.35 2190.48,2779.48C2187.07,2782.33 2181.78,2785.62 2177.55,2782.52C2171.21,2777.87 2165.99,2771.99 2160.21,2766.76C2159.86,2763.4 2160.01,2760.63 2159.86,2757.42Z" style="fill: #292829; fill-rule: nonzero"/>
                        </g>
                        <g transform="matrix(1,0,0,1,-109.569,578.283)">
                            <path d="M2546.43,2772.2C2549.97,2778.12 2550.33,2785.15 2551.24,2791.85C2549.67,2792.63 2548.12,2793.43 2546.6,2794.28C2543.86,2787.33 2541.08,2778.63 2546.43,2772.2Z" style="fill: #292829; fill-rule: nonzero"/>
                        </g>
                        <g transform="matrix(1,0,0,1,-109.569,578.283)">
                            <path d="M1828.38,2783.49C1833.23,2791.03 1832.11,2800.53 1831.38,2809.07C1831.18,2813.95 1830.07,2818.79 1828.51,2823.42C1824.48,2810.54 1825.14,2796.47 1828.38,2783.49Z" style="fill: #292829; fill-rule: nonzero"/>
                        </g>
                        <g transform="matrix(1,0,0,1,-109.569,578.283)">
                            <path d="M2553.5,2796.16C2554.16,2796.1 2555.49,2796 2556.15,2795.95C2555.92,2797.75 2555.71,2799.57 2555.54,2801.44C2554.81,2799.67 2554.13,2797.89 2553.5,2796.16Z" style="fill: #292829; fill-rule: nonzero"/>
                        </g>
                    </g>
                </g>
            </g>
        </g>
    </g>
</svg>